<?xml version="1.0" encoding="UTF-8"?>
<svg width="200px" height="200px" viewBox="0 0 200 200" xmlns="http://www.w3.org/2000/svg" xmlns:xlink="http://www.w3.org/1999/xlink" version="1.1">
 <!-- Generated by Pixelmator Pro 2.1.4 -->
 <defs>
  <path id="Shape-5" d="M43 33 L160 33 C168.284 33 175 39.716 175 48 L175 148 C175 156.284 168.284 163 160 163 L43 163 C34.716 163 28 156.284 28 148 L28 48 C28 39.716 34.716 33 43 33 Z"/>
 </defs>
 <use id="Shape-5-1" xlink:href="#Shape-5" fill="#ffffff" fill-opacity="1" stroke="none"/>
 <defs>
  <path id="stroke-path" d="M165.625 163.547 L168.563 162.125 171.094 160.219 173.219 157.891 174.875 155.172 176 152.125 176.5 148.094 176.484 47.484 175.531 42.375 174.109 39.438 172.203 36.906 169.875 34.781 167.156 33.125 164.109 32 160.469 31.516 42.906 31.5 38.875 32 35.828 33.125 33.109 34.781 30.781 36.906 28.875 39.438 27.453 42.375 26.5 47.875 26.609 150.141 28.078 155.125 29.766 157.891 31.891 160.219 34.422 162.125 37.359 163.547 42.469 164.5 160.516 164.5 Z"/>
 </defs>
 <use id="Shape-5-2" stroke="#000000" stroke-opacity="1" stroke-linecap="round" fill="none" stroke-width="3" xlink:href="#stroke-path"/>
 <path id="Shape-2" d="M37 53 L67 53" fill="none" stroke="#000000" stroke-width="3" stroke-opacity="1" stroke-linejoin="round" stroke-linecap="round"/>
 <path id="Shape-2-copy" d="M37 96 L57.224 96" fill="none" stroke="#000000" stroke-width="3" stroke-opacity="1" stroke-linejoin="round" stroke-linecap="round"/>
 <path id="Shape-2-copy-1" d="M37 147 L67 147" fill="none" stroke="#000000" stroke-width="3" stroke-opacity="1" stroke-linejoin="round" stroke-linecap="round"/>
 <path id="Shape-2-copy-11" d="M67 131 L132 131" fill="none" stroke="#000000" stroke-width="3" stroke-opacity="1" stroke-linejoin="round" stroke-linecap="round"/>
 <path id="Shape-2-copy-12" d="M83 96 L148 96" fill="none" stroke="#000000" stroke-width="3" stroke-opacity="1" stroke-linejoin="round" stroke-linecap="round"/>
 <path id="Shape-2-copy-2" d="M77 53 L121.011 53" fill="none" stroke="#000000" stroke-width="3" stroke-opacity="1" stroke-linejoin="round" stroke-linecap="round"/>
 <path id="Shape-2-copy-3" d="M47 80 L77 80" fill="none" stroke="#000000" stroke-width="3" stroke-opacity="1" stroke-linejoin="round" stroke-linecap="round"/>
 <path id="Shape-2-copy-4" d="M47 66 L58 66" fill="none" stroke="#000000" stroke-width="3" stroke-opacity="1" stroke-linejoin="round" stroke-linecap="round"/>
 <path id="Shape-2-copy-5" d="M47 131 L58 131" fill="none" stroke="#000000" stroke-width="3" stroke-opacity="1" stroke-linejoin="round" stroke-linecap="round"/>
 <path id="Shape-2-copy-6" d="M132 53 L137.385 53" fill="none" stroke="#000000" stroke-width="3" stroke-opacity="1" stroke-linejoin="round" stroke-linecap="round"/>
 <path id="Shape-2-copy-7" d="M67 96 L72.385 96" fill="none" stroke="#000000" stroke-width="3" stroke-opacity="1" stroke-linejoin="round" stroke-linecap="round"/>
 <path id="Shape-2-copy-8" d="M77 147 L82.385 147" fill="none" stroke="#000000" stroke-width="3" stroke-opacity="1" stroke-linejoin="round" stroke-linecap="round"/>
 <path id="Shape-2-copy-9" d="M47 113 L77 113" fill="none" stroke="#000000" stroke-width="3" stroke-opacity="1" stroke-linejoin="round" stroke-linecap="round"/>
 <path id="Shape-2-copy-10" d="M67 66 L117.01 66" fill="none" stroke="#000000" stroke-width="3" stroke-opacity="1" stroke-linejoin="round" stroke-linecap="round"/>
</svg>
