<?xml version="1.0" encoding="UTF-8"?>
<svg width="220px" height="182px" viewBox="0 0 220 182" xmlns="http://www.w3.org/2000/svg" xmlns:xlink="http://www.w3.org/1999/xlink" version="1.1">
 <!-- Generated by Pixelmator Pro 2.1.4 -->
 <path id="Shape-8" d="M20.2 175.942 C6.55 169.121 0.399 153.428 5.822 139.261 9.309 130.15 75.87 17.179 81.167 11.381 89.638 2.107 106.505 0.495 118.104 7.851 123.483 11.262 176.189 72.814 178.531 78.42 181.946 86.593 179.439 92.737 170.305 98.584 132.371 122.867 50.298 173.89 45.593 176.116 36.918 180.22 28.647 180.163 20.2 175.942 Z" fill="#000000" fill-opacity="1" stroke="none"/>
 <path id="Shape-7" d="M124.833 155.5 C118.112 151.849 117.788 142.67 125.167 137.167 129.22 134.143 165.936 109.973 173.667 105.667 181.197 101.472 183.324 101.253 190.667 104.667 194.33 106.37 207.459 126.022 210.333 130 228.376 154.971 206.932 181.516 185 179.333 176.117 178.449 135.309 161.191 124.833 155.5 Z" fill="#000000" fill-opacity="1" stroke="none"/>
</svg>